<svg width="150" height="150" viewBox="0 0 150 150" fill="none" xmlns="http://www.w3.org/2000/svg">
<g filter="url(#filter0_d_64_1031)">
<path d="M80.9999 137.31C118.727 137.31 149.31 106.727 149.31 68.9999C149.31 31.2734 118.727 0.689941 80.9999 0.689941C43.2734 0.689941 12.6899 31.2734 12.6899 68.9999C12.6899 106.727 43.2734 137.31 80.9999 137.31Z" fill="white"/>
<path d="M80.9999 137.31C118.727 137.31 149.31 106.727 149.31 68.9999C149.31 31.2734 118.727 0.689941 80.9999 0.689941C43.2734 0.689941 12.6899 31.2734 12.6899 68.9999C12.6899 106.727 43.2734 137.31 80.9999 137.31Z" stroke="black" stroke-width="1.38"/>
</g>
<path d="M81.0001 133.17C116.44 133.17 145.17 104.44 145.17 69.0001C145.17 33.56 116.44 4.83008 81.0001 4.83008C45.56 4.83008 16.8301 33.56 16.8301 69.0001C16.8301 104.44 45.56 133.17 81.0001 133.17Z" stroke="black" stroke-width="1.38"/>
<path d="M81 106.95C101.959 106.95 118.95 89.959 118.95 68.9998C118.95 48.0406 101.959 31.0498 81 31.0498C60.0408 31.0498 43.05 48.0406 43.05 68.9998C43.05 89.959 60.0408 106.95 81 106.95Z" stroke="black" stroke-width="1.38"/>
<path d="M80.9999 102.81C99.6727 102.81 114.81 87.6727 114.81 68.9999C114.81 50.3272 99.6727 35.1899 80.9999 35.1899C62.3272 35.1899 47.1899 50.3272 47.1899 68.9999C47.1899 87.6727 62.3272 102.81 80.9999 102.81Z" stroke="black" stroke-width="1.38"/>
<path d="M130.34 84.2919C131.483 84.2919 132.41 83.3651 132.41 82.2219C132.41 81.0786 131.483 80.1519 130.34 80.1519C129.197 80.1519 128.27 81.0786 128.27 82.2219C128.27 83.3651 129.197 84.2919 130.34 84.2919Z" stroke="black" stroke-width="1.38"/>
<path d="M31.6576 84.2904C32.8009 84.2904 33.7276 83.3636 33.7276 82.2204C33.7276 81.0772 32.8009 80.1504 31.6576 80.1504C30.5144 80.1504 29.5876 81.0772 29.5876 82.2204C29.5876 83.3636 30.5144 84.2904 31.6576 84.2904Z" stroke="black" stroke-width="1.38"/>
<path d="M98.868 63.3359C99.572 58.1058 95.6041 55.3755 90.1641 53.5296L91.8537 46.4537L87.553 45.4153L85.9146 52.3374C84.7754 52.0682 83.6234 51.799 82.4842 51.5683L84.1226 44.6462L79.7707 43.6079L78.0811 50.6838C77.1595 50.4659 76.2251 50.2993 75.3035 50.0813L69.3772 48.6585L68.2892 53.2347C68.2892 53.2347 71.502 53.9398 71.3868 54.0039C73.1276 54.4397 73.4603 55.5806 73.3963 56.4522L71.4892 64.5152C71.6044 64.5665 71.758 64.5665 71.9244 64.6818C71.758 64.6306 71.6556 64.6306 71.4892 64.5793L68.878 75.8597C68.6604 76.3981 68.11 77.1672 66.9196 76.898C66.9708 76.9493 63.7581 76.1289 63.7581 76.1289L61.7229 81.0897L67.3292 82.3972C68.366 82.6664 69.4028 82.8844 70.3756 83.1664L68.686 90.3064L72.9868 91.3447L74.6763 84.2688C75.8795 84.5892 77.0187 84.8712 78.1067 85.1404L76.4171 92.1651L80.7179 93.2034L82.4074 86.0634C89.7545 87.3709 95.2457 86.7684 97.4728 80.0642C99.2648 74.7189 97.3064 71.668 93.3897 69.6555C96.2568 69.0017 98.3304 67.143 98.868 63.3359ZM89.1913 77.2185C87.937 82.5639 78.9131 79.7822 76.0203 79.0772L78.2475 69.5914C81.1914 70.3092 90.4969 71.6167 89.1913 77.2185ZM90.3817 63.3359C89.2425 68.1813 81.729 65.8483 79.2843 65.2458L81.3578 56.6445C83.7514 57.2342 91.5849 58.2725 90.3817 63.3359Z" fill="black"/>
<path d="M46.1344 104.589C47.6078 102.927 47.4771 100.811 46.0497 99.1435C44.3676 97.1782 41.6679 96.924 39.2361 99.0054C36.808 101.084 36.623 103.775 38.3208 105.759C39.852 107.548 42.0246 107.744 43.6402 106.724L42.4716 105.344C41.4422 105.926 40.3301 105.63 39.5598 104.73C38.5159 103.51 38.6823 101.853 40.4088 100.376C42.106 98.923 43.7921 98.9819 44.8453 100.213C45.6282 101.127 45.7233 102.287 44.9585 103.215L46.1344 104.589Z" fill="black"/>
<path d="M54.3131 112.979C56.2108 110.402 55.7556 107.725 53.6646 106.185C51.5697 104.643 48.8826 105.007 46.9849 107.584C45.09 110.158 45.5384 112.836 47.6333 114.378C49.7243 115.917 52.4154 115.557 54.3131 112.979ZM52.8607 111.91C51.5248 113.725 49.8884 114.039 48.5879 113.081C47.2912 112.127 47.1014 110.468 48.4373 108.654C49.7731 106.839 51.4134 106.528 52.7101 107.482C54.0106 108.44 54.1965 110.095 52.8607 111.91Z" fill="black"/>
<path d="M58.8651 110.011L55.1764 119.201L56.7738 119.842L59.3134 113.515L59.3987 113.549L59.4097 120.869L60.6033 121.348L65.6664 116.081L65.7517 116.115L63.2175 122.428L64.815 123.07L68.5037 113.88L66.4665 113.062L61.0653 118.626L60.9576 118.583L60.9023 110.829L58.8651 110.011Z" fill="black"/>
<path d="M70.6835 114.437L69.614 124.281L71.3253 124.467L72.0616 117.69L72.1529 117.699L74.1405 124.744L75.4191 124.883L78.8715 118.444L78.9628 118.454L78.2281 125.217L79.9393 125.403L81.0088 115.559L78.8264 115.321L75.1289 122.137L75.0135 122.125L72.8658 114.674L70.6835 114.437Z" fill="black"/>
<path d="M89.54 114.559L90.3966 120.82C90.565 122.051 89.8281 123.05 88.4819 123.234C87.1309 123.419 86.1576 122.654 85.9892 121.423L85.1326 115.162L83.3553 115.405L84.2322 121.815C84.5206 123.922 86.2987 125.148 88.6988 124.82C91.0893 124.493 92.4826 122.833 92.1942 120.725L91.3173 114.316L89.54 114.559Z" fill="black"/>
<path d="M101.206 110.866L99.5335 111.488L101.889 117.814L101.807 117.844L95.0838 113.145L93.5794 113.705L97.0347 122.985L98.7158 122.359L96.3622 116.038L96.4393 116.01L103.166 120.703L104.661 120.146L101.206 110.866Z" fill="black"/>
<path d="M104.88 108.626L103.325 109.52L108.259 118.105L109.815 117.211L104.88 108.626Z" fill="black"/>
<path d="M107.731 108.82L110.122 106.909L115.365 113.47L116.755 112.359L111.512 105.798L113.903 103.887L112.964 102.713L106.792 107.645L107.731 108.82Z" fill="black"/>
<path d="M113.89 101.877L120.972 103.045L123.823 105.394L124.961 104.014L122.11 101.664L119.609 94.9362L118.321 96.4997L120.161 101.155L120.1 101.23L115.178 100.313L113.89 101.877Z" fill="black"/>
<path d="M35.1439 64.6322L35.8207 60.6814C36.2036 58.4462 35.2523 57.1549 33.732 56.8945C32.2546 56.6415 31.2076 57.5414 30.9772 58.5713L30.8819 58.555C30.8212 57.5635 30.283 56.6962 29.0963 56.4929C27.6427 56.2439 26.386 57.1079 26.0236 59.2239L25.3835 62.9603L35.1439 64.6322ZM33.9694 62.611L31.1099 62.1212L31.4438 60.172C31.6307 59.0806 32.4139 58.5182 33.286 58.6676C34.0628 58.8006 34.5147 59.4275 34.2951 60.7095L33.9694 62.611ZM29.8374 61.9033L27.1447 61.442L27.4509 59.6548C27.6288 58.6159 28.2692 58.1712 29.0222 58.3002C29.88 58.4472 30.2946 59.2344 30.137 60.1542L29.8374 61.9033Z" fill="black"/>
<path d="M29.0119 48.5928L28.3834 50.2729L37.6582 53.7425L38.2867 52.0623L29.0119 48.5928Z" fill="black"/>
<path d="M32.488 44.2067L34.0771 41.5909L41.2551 45.9518L42.179 44.431L35.001 40.0702L36.5902 37.4544L35.305 36.6736L31.2028 43.4259L32.488 44.2067Z" fill="black"/>
<path d="M46.9932 28.6766C45.2221 27.3363 43.1228 27.6303 41.5706 29.1826C39.7414 31.0117 39.697 33.723 41.9604 35.9864C44.2203 38.2464 46.9179 38.2225 48.7642 36.3762C50.4293 34.7111 50.4566 32.5298 49.3147 30.9981L48.0291 32.2699C48.689 33.2512 48.4804 34.3829 47.6428 35.2206C46.5077 36.3557 44.8426 36.3181 43.2357 34.7111C41.6561 33.1315 41.5843 31.446 42.7296 30.3006C43.581 29.4493 44.7298 29.2646 45.7144 29.9553L46.9932 28.6766Z" fill="black"/>
<path d="M59.6932 22.5536C58.102 19.7763 55.4696 19.1111 53.2166 20.4019C50.9595 21.6951 50.2062 24.3001 51.7975 27.0774C53.3863 29.8506 56.0169 30.5223 58.2741 29.2291C60.527 27.9383 61.2845 25.331 59.6932 22.5536ZM58.1283 23.4502C59.2485 25.4053 58.8749 27.0292 57.4736 27.832C56.0765 28.6325 54.4825 28.1359 53.3623 26.1808C52.2422 24.2258 52.62 22.5995 54.0171 21.799C55.4184 20.9962 57.0082 21.4951 58.1283 23.4502Z" fill="black"/>
<path d="M64.4785 15.6526L62.7736 16.2105L65.8534 25.6219L67.5583 25.064L64.4785 15.6526Z" fill="black"/>
<path d="M78.4718 13.0757L76.6997 13.2838L77.4873 19.9877L77.4008 19.9979L71.984 13.8378L70.3896 14.0251L71.545 23.86L73.3266 23.6507L72.5396 16.9517L72.6213 16.9421L78.0424 23.0968L79.6271 22.9106L78.4718 13.0757Z" fill="black"/>
<path d="M92.5802 24.593C95.4925 25.3817 97.7072 24.0479 98.5162 21.0609C99.3226 18.0833 98.0812 15.8235 95.2342 15.0525L91.9299 14.1575L89.3413 23.7157L92.5802 24.593ZM91.4785 22.6865L93.2557 16.1246L94.7305 16.524C96.672 17.0499 97.3915 18.4069 96.7987 20.5958C96.2033 22.794 94.8948 23.6118 92.9019 23.0721L91.4785 22.6865Z" fill="black"/>
<path d="M100.614 27.3403L106.269 30.5022L107.003 29.1897L102.913 26.9032L104.232 24.544L107.997 26.6488L108.731 25.3363L104.966 23.2315L106.278 20.8849L110.334 23.1526L111.068 21.84L105.446 18.697L100.614 27.3403Z" fill="black"/>
<path d="M118.205 31.046L119.481 32.2088C120.583 30.9496 120.327 29.1132 118.769 27.6931C117.232 26.2924 115.29 26.1051 114.114 27.4019C113.157 28.4525 113.353 29.7372 114.274 31.1458L114.911 32.1192C115.519 33.0391 115.815 33.7613 115.301 34.3327C114.728 34.9548 113.753 34.8322 112.888 34.0439C112.059 33.2882 111.755 32.3303 112.402 31.5131L111.097 30.3242C109.825 31.8275 110.162 33.6328 111.867 35.1865C113.621 36.7858 115.438 36.8386 116.617 35.5519C117.77 34.2801 117.251 32.7468 116.388 31.4827L115.858 30.6857C115.388 29.9956 114.969 29.149 115.533 28.5445C116.038 27.9974 116.899 28.0431 117.728 28.7988C118.518 29.5187 118.704 30.3623 118.205 31.046Z" fill="black"/>
<path d="M126.138 36.1294L125.062 34.6943L117.14 40.6358L118.216 42.0709L126.138 36.1294Z" fill="black"/>
<path d="M129.586 48.4943L130.376 50.1426C131.997 49.028 132.491 46.9255 131.545 44.9502C130.425 42.6129 127.867 41.6831 124.989 43.062C122.164 44.4159 121.213 46.9302 122.393 49.3939C123.453 51.6047 125.632 52.5065 127.935 51.4034L129.008 50.8894L127.271 47.2658L126.007 47.8717L126.993 49.9299C125.707 50.5138 124.493 50.05 123.85 48.7069C123.133 47.2112 123.763 45.6496 125.786 44.6802C127.796 43.717 129.412 44.2244 130.103 45.6677C130.619 46.7448 130.395 47.7531 129.586 48.4943Z" fill="black"/>
<path d="M136.638 62.7791L136.313 61.0247L129.676 62.2537L129.66 62.1681L135.448 56.3559L135.156 54.7774L125.419 56.5803L125.746 58.3442L132.378 57.1162L132.393 57.197L126.61 63.0131L126.901 64.582L136.638 62.7791Z" fill="black"/>
<defs>
<filter id="filter0_d_64_1031" x="0.0812912" y="0" width="149.919" height="149.919" filterUnits="userSpaceOnUse" color-interpolation-filters="sRGB">
<feFlood flood-opacity="0" result="BackgroundImageFix"/>
<feColorMatrix in="SourceAlpha" type="matrix" values="0 0 0 0 0 0 0 0 0 0 0 0 0 0 0 0 0 0 127 0" result="hardAlpha"/>
<feOffset dx="-11.9187" dy="11.9187"/>
<feComposite in2="hardAlpha" operator="out"/>
<feColorMatrix type="matrix" values="0 0 0 0 0 0 0 0 0 0 0 0 0 0 0 0 0 0 0.07 0"/>
<feBlend mode="normal" in2="BackgroundImageFix" result="effect1_dropShadow_64_1031"/>
<feBlend mode="normal" in="SourceGraphic" in2="effect1_dropShadow_64_1031" result="shape"/>
</filter>
</defs>
</svg>
