<svg viewBox="0 0 24 24" xmlns="http://www.w3.org/2000/svg"><title>svg-twitter</title><path d="M18.362 8.739c.006.141.01.282.01.425 0 4.337-3.302 9.339-9.34 9.339A9.294 9.294 0 014 17.029c.257.03.518.045.783.045a6.584 6.584 0 004.077-1.405 3.285 3.285 0 01-3.067-2.279 3.312 3.312 0 001.483-.057 3.283 3.283 0 01-2.633-3.218v-.042c.442.246.949.394 1.487.411a3.282 3.282 0 01-1.016-4.383 9.32 9.32 0 006.766 3.43 3.283 3.283 0 015.593-2.994 6.568 6.568 0 002.085-.796 3.299 3.299 0 01-1.443 1.816A6.587 6.587 0 0020 7.04a6.682 6.682 0 01-1.638 1.699z" fill="#000" fill-rule="evenodd"/></svg>