<svg width="155" height="55" viewBox="0 0 155 55" fill="none" xmlns="http://www.w3.org/2000/svg">
<path d="M44.2861 23.756C46.8113 24.8897 48.8211 26.6035 50.3156 28.8974C51.8101 31.1913 52.5573 33.7752 52.5573 36.6755C52.5573 39.233 51.9389 41.5532 50.7279 43.6889C49.5426 45.7982 47.8162 47.5384 45.7548 48.7512C43.6677 49.9904 41.3744 50.6232 38.875 50.6232H33.1032V52.1261C33.1032 52.9171 32.794 53.6026 32.1756 54.1563C31.5572 54.7363 30.7842 55 29.8823 55C29.1093 55 28.4136 54.71 27.821 54.1563C27.2283 53.5762 26.9191 52.8907 26.9191 52.0997V50.5968H16.6381C15.7362 50.5968 14.989 50.2541 14.3964 49.5686C13.8037 48.883 13.5203 48.0657 13.5718 47.0901C13.7522 46.3519 14.1387 45.6927 14.7829 45.1127C15.427 44.5326 16.1227 44.2689 16.8442 44.2689H38.6174C39.983 44.2689 41.2456 43.9262 42.4051 43.2143C43.5389 42.5288 44.518 41.5532 45.188 40.3931C45.8837 39.2593 46.2444 37.9147 46.2444 36.57C46.2444 34.7771 45.6775 33.1951 44.5695 31.8241C43.4616 30.453 42.0701 29.5829 40.3953 29.1874C40.0603 29.0029 39.4419 28.9238 38.5916 28.9238H32.6909C31.8664 28.9501 31.0676 28.6338 30.475 28.0801C29.8566 27.5 29.4701 26.8408 29.3412 26.0499C29.2639 25.127 29.4958 24.3624 30.0885 23.756C30.6554 23.1496 31.4026 22.8068 32.3044 22.7804H34.9327C36.4787 22.6486 37.767 21.9895 38.8235 20.7766C39.8799 19.5638 40.3953 18.14 40.3953 16.4525C40.3953 14.686 39.8284 13.2359 38.7204 12.0757C37.6124 10.9156 36.221 10.3356 34.5462 10.3356H22.0234C21.2504 10.3356 20.5804 10.0455 20.0393 9.43912C19.4725 8.85906 19.2148 8.14717 19.2148 7.35619C19.2148 6.51247 19.4982 5.80058 20.0393 5.22052C20.6062 4.64046 21.2504 4.32407 22.0234 4.32407H26.9191V2.95302C26.9191 2.1093 27.2283 1.42378 27.821 0.843719C28.4136 0.263662 29.1093 0 29.8823 0C30.7842 0 31.5314 0.290028 32.1756 0.843719C32.794 1.42378 33.1032 2.1093 33.1032 2.95302V4.32407H34.5719C36.7621 4.32407 38.772 4.87776 40.6014 5.95877C42.4309 7.03979 43.9511 8.56903 45.0076 10.441C46.0898 12.3394 46.6567 14.396 46.6567 16.6371C46.6567 19.1683 45.8579 21.5412 44.2861 23.756ZM31.2222 16.9008C31.2222 17.6918 30.913 18.4036 30.2688 19.0628C29.6247 19.722 28.9032 20.0384 28.0786 20.0384H14.3448C13.4945 20.0384 12.773 19.722 12.1804 19.0628C11.5878 18.4036 11.3043 17.6918 11.3043 16.9008C11.3043 16.0307 11.5878 15.2397 12.1804 14.5542C12.773 13.8686 13.4687 13.5259 14.3448 13.5259H28.1044C28.929 13.5259 29.6504 13.8686 30.2946 14.5542C30.913 15.2397 31.2222 16.0043 31.2222 16.9008ZM20.1939 26.0499C20.1939 26.9727 19.9105 27.7373 19.3179 28.3437C18.751 28.9501 17.978 29.2665 17.0246 29.2665H3.34231C2.44046 29.2665 1.69322 28.9501 1.10058 28.3174C0.507935 27.7109 0.19873 26.8936 0.19873 26.0499C0.19873 25.2061 0.507935 24.5206 1.10058 23.9406C1.69322 23.3605 2.44046 23.0968 3.34231 23.0968H17.0246C17.978 23.0968 18.7252 23.3605 19.3179 23.9142C19.8847 24.4679 20.1939 25.1798 20.1939 26.0499ZM31.8664 36.6491C31.8664 37.4928 31.5572 38.3365 30.9903 38.943C30.4234 39.6021 29.7277 39.9449 28.9032 39.9449H9.39756C8.57301 39.9449 7.8773 39.6285 7.31043 38.943C6.74355 38.3102 6.43435 37.4928 6.43435 36.6491C6.43435 35.779 6.71779 35.0407 7.25889 34.4871C7.82577 33.907 8.52148 33.6433 9.37179 33.6433H28.929C29.7535 33.6433 30.4492 33.9334 31.0161 34.4871C31.583 35.0671 31.8664 35.779 31.8664 36.6491ZM75.6961 20.7766C75.6961 21.6467 75.4127 22.385 74.82 22.9386C74.2532 23.5187 73.5059 23.7824 72.6041 23.7824H71.2642C70.7488 23.7824 70.2593 23.8615 69.7955 23.9933C68.5586 24.1779 67.2188 24.9425 65.8016 26.2872C64.4359 28.2646 63.7402 30.5058 63.7402 33.0105V47.6966C63.7402 48.5403 63.431 49.2522 62.8384 49.8586C62.2715 50.465 61.4727 50.8078 60.6482 50.7814C59.7979 50.7814 59.0764 50.465 58.5353 49.8586C57.9942 49.2785 57.685 48.4875 57.7107 47.6966V20.7766C57.7107 19.9329 57.9942 19.2474 58.5868 18.6673C59.1537 18.1136 59.9009 17.7972 60.6739 17.8236C61.4727 17.8236 62.22 18.1136 62.7868 18.6673C63.3795 19.2474 63.7144 19.9329 63.7402 20.7766C64.2555 20.1702 64.7194 19.722 65.1574 19.4583C66.2396 18.5882 67.7599 18.0082 69.7182 17.7445C71.3157 17.6654 72.7071 17.8236 73.8924 18.2191C75.1035 18.6146 75.6961 19.4583 75.6961 20.7766ZM84.3796 36.1218C84.2508 36.1218 84.1219 36.1745 84.0189 36.2536C83.9158 36.3327 83.8643 36.4645 83.8643 36.6491V37.4928C83.8643 39.7339 84.5857 41.5005 86.0545 42.8188C87.4201 44.1898 89.3011 44.849 91.6459 44.849C92.3416 44.849 92.96 44.7963 93.5011 44.6381C94.7379 44.3217 95.8202 43.8207 96.722 43.1352C96.8508 43.0034 97.0827 42.8452 97.4177 42.6342C97.7784 42.4233 98.1649 42.3442 98.5772 42.3442H98.6288C99.1956 42.3442 99.711 42.5288 100.175 42.8715C100.639 43.2143 100.999 43.6889 101.205 44.2426C101.283 44.6908 101.334 44.9808 101.334 45.1654C101.334 45.6136 101.231 46.0091 101.025 46.3519C100.587 47.222 99.6852 48.0657 98.3195 48.8567C96.4643 49.964 94.1968 50.4914 91.5171 50.4914C87.5747 50.4914 84.3281 49.2785 81.7514 46.8792C79.2262 44.4271 77.9636 41.2105 77.9636 37.2555V30.4003C77.9636 26.8936 79.1747 23.8615 81.571 21.3039C83.9158 18.7464 86.8017 17.4808 90.1772 17.4808C93.3465 17.4808 96.1036 18.6673 98.4742 21.0403C100.355 22.965 101.463 25.338 101.824 28.1592L101.901 28.6337C101.953 28.9501 101.953 29.4775 101.953 30.2157L101.901 32.4569C101.901 33.4324 101.566 34.2761 100.87 34.988C100.226 35.6999 99.3245 36.0954 98.3711 36.069H84.3796V36.1218ZM83.8643 29.7411C83.8643 30.0575 83.9931 30.3476 84.225 30.5585C84.4569 30.7958 84.7403 30.9276 85.0238 30.9276H95.1244C95.4336 30.9276 95.6913 30.7958 95.8974 30.5585C96.1036 30.3212 96.2067 30.0312 96.2067 29.7411V29.3456C96.2067 28.4756 96.0778 27.6846 95.7944 26.999C95.5109 26.3135 95.0471 25.628 94.403 24.9161C93.2434 23.5451 91.8005 22.8859 90.0999 22.8859C88.3992 22.8859 86.9305 23.5187 85.7195 24.7843C84.4827 26.0499 83.8643 27.6055 83.8643 29.4511V29.7411ZM112.208 36.1218C112.079 36.1218 111.95 36.1745 111.847 36.2536C111.744 36.3327 111.693 36.4645 111.693 36.6491V37.4928C111.693 39.7339 112.414 41.5005 113.883 42.8188C115.248 44.1898 117.129 44.849 119.474 44.849C120.093 44.849 120.737 44.7963 121.33 44.6381C122.566 44.3217 123.649 43.8207 124.55 43.1352C124.679 43.0034 124.911 42.8452 125.246 42.6342C125.607 42.4233 125.993 42.3442 126.406 42.3442H126.457C127.024 42.3442 127.539 42.5288 128.003 42.8715C128.467 43.2143 128.828 43.6889 129.034 44.2426C129.111 44.6908 129.163 44.9808 129.163 45.1654C129.163 45.6136 129.06 46.0091 128.853 46.3519C128.415 47.222 127.514 48.0657 126.148 48.8567C124.318 49.964 122.025 50.4914 119.345 50.4914C115.403 50.4914 112.156 49.2785 109.58 46.8792C107.055 44.4271 105.792 41.2105 105.792 37.2555V30.4003C105.792 26.8936 107.003 23.8615 109.399 21.3039C111.744 18.7464 114.63 17.4808 118.006 17.4808C121.175 17.4808 123.932 18.6673 126.303 21.0403C128.184 22.965 129.292 25.338 129.652 28.1592L129.704 28.6337C129.755 28.9501 129.755 29.4775 129.755 30.2157L129.704 32.4569C129.704 33.4324 129.369 34.2761 128.673 34.988C128.029 35.6999 127.127 36.0954 126.174 36.069H112.208V36.1218ZM111.693 29.7411C111.693 30.0575 111.821 30.3476 112.053 30.5585C112.285 30.7958 112.569 30.9276 112.852 30.9276H122.953C123.262 30.9276 123.52 30.7958 123.726 30.5585C123.932 30.3212 124.035 30.0312 124.035 29.7411V29.3456C124.035 28.4756 123.906 27.6846 123.623 26.999C123.339 26.3135 122.876 25.628 122.231 24.9161C121.072 23.5451 119.629 22.8859 117.928 22.8859C116.228 22.8859 114.759 23.5187 113.548 24.7843C112.311 26.0499 111.693 27.6055 111.693 29.4511V29.7411ZM151.966 44.1107C152.791 44.1107 153.461 44.3744 154.002 44.9281C154.543 45.4818 154.801 46.1409 154.801 46.9319C154.801 47.7757 154.543 48.4875 154.002 49.0676C153.461 49.6476 152.791 49.9641 151.966 49.9641H135.192C134.419 49.9641 133.749 49.674 133.157 49.0676C132.59 48.5139 132.28 47.7229 132.28 46.9319C132.28 46.6683 132.358 46.3519 132.512 46.0091C132.667 45.6664 132.77 45.4291 132.873 45.2709L145.216 24.9161C145.267 24.8634 145.267 24.7843 145.267 24.6524C145.267 24.5206 145.216 24.3888 145.138 24.2833C145.061 24.1779 144.932 24.1251 144.752 24.1251H135.295C134.548 24.1251 133.852 23.8351 133.337 23.2814C132.796 22.7013 132.538 22.0158 132.538 21.1721C132.538 20.3284 132.847 19.6692 133.44 19.1419C134.007 18.6146 134.728 18.3509 135.501 18.3509H150.859C151.683 18.3509 152.353 18.6146 152.92 19.1683C153.487 19.722 153.744 20.4075 153.744 21.2512C153.744 21.8313 153.564 22.3586 153.229 22.8332L140.912 43.1879C140.861 43.2934 140.835 43.3989 140.861 43.5043C140.861 43.6889 140.912 43.8207 140.99 43.9262C141.067 44.0316 141.196 44.0844 141.299 44.0844H151.966V44.1107Z" fill="#0085FB"/>
</svg>
