<svg width="103" height="42" viewBox="0 0 103 42" fill="none" xmlns="http://www.w3.org/2000/svg">
<path d="M8.73699 27.05C8.49699 27.47 8.27699 27.71 8.07699 27.77C7.89699 27.81 7.58699 27.69 7.14699 27.41L4.32699 25.37C3.90699 25.07 3.68699 24.82 3.66699 24.62C3.64699 24.42 3.80699 24.13 4.14699 23.75L7.41699 20.3L2.85699 19.55C2.35699 19.47 2.04699 19.35 1.92699 19.19C1.82699 19.01 1.85699 18.67 2.01699 18.17L3.09699 14.84C3.23699 14.34 3.40699 14.05 3.60699 13.97C3.80699 13.89 4.12699 13.96 4.56699 14.18L8.82699 16.1L8.13699 11.63C8.05699 11.13 8.08699 10.8 8.22699 10.64C8.38699 10.48 8.71699 10.4 9.21699 10.4H12.727C13.227 10.4 13.537 10.48 13.657 10.64C13.797 10.8 13.827 11.13 13.747 11.63L13.147 16.1L17.257 14.18C17.697 13.96 18.007 13.89 18.187 13.97C18.387 14.05 18.567 14.34 18.727 14.84L19.837 18.17C19.997 18.67 20.017 19.01 19.897 19.19C19.797 19.35 19.497 19.47 18.997 19.55L14.407 20.3L17.707 23.75C18.047 24.13 18.207 24.42 18.187 24.62C18.167 24.82 17.947 25.07 17.527 25.37L14.707 27.41C14.267 27.69 13.957 27.81 13.777 27.77C13.597 27.71 13.387 27.47 13.147 27.05L10.927 22.82L8.73699 27.05ZM29.0702 27.05C28.8302 27.47 28.6102 27.71 28.4102 27.77C28.2302 27.81 27.9202 27.69 27.4802 27.41L24.6602 25.37C24.2402 25.07 24.0202 24.82 24.0002 24.62C23.9802 24.42 24.1402 24.13 24.4802 23.75L27.7502 20.3L23.1902 19.55C22.6902 19.47 22.3802 19.35 22.2602 19.19C22.1602 19.01 22.1902 18.67 22.3502 18.17L23.4302 14.84C23.5702 14.34 23.7402 14.05 23.9402 13.97C24.1402 13.89 24.4602 13.96 24.9002 14.18L29.1602 16.1L28.4702 11.63C28.3902 11.13 28.4202 10.8 28.5602 10.64C28.7202 10.48 29.0502 10.4 29.5502 10.4H33.0602C33.5602 10.4 33.8702 10.48 33.9902 10.64C34.1302 10.8 34.1602 11.13 34.0802 11.63L33.4802 16.1L37.5902 14.18C38.0302 13.96 38.3402 13.89 38.5202 13.97C38.7202 14.05 38.9002 14.34 39.0602 14.84L40.1702 18.17C40.3302 18.67 40.3502 19.01 40.2302 19.19C40.1302 19.35 39.8302 19.47 39.3302 19.55L34.7402 20.3L38.0402 23.75C38.3802 24.13 38.5402 24.42 38.5202 24.62C38.5002 24.82 38.2802 25.07 37.8602 25.37L35.0402 27.41C34.6002 27.69 34.2902 27.81 34.1102 27.77C33.9302 27.71 33.7202 27.47 33.4802 27.05L31.2602 22.82L29.0702 27.05ZM49.4034 27.05C49.1634 27.47 48.9434 27.71 48.7434 27.77C48.5634 27.81 48.2534 27.69 47.8134 27.41L44.9934 25.37C44.5734 25.07 44.3534 24.82 44.3334 24.62C44.3134 24.42 44.4734 24.13 44.8134 23.75L48.0834 20.3L43.5234 19.55C43.0234 19.47 42.7134 19.35 42.5934 19.19C42.4934 19.01 42.5234 18.67 42.6834 18.17L43.7634 14.84C43.9034 14.34 44.0734 14.05 44.2734 13.97C44.4734 13.89 44.7934 13.96 45.2334 14.18L49.4934 16.1L48.8034 11.63C48.7234 11.13 48.7534 10.8 48.8934 10.64C49.0534 10.48 49.3834 10.4 49.8834 10.4H53.3934C53.8934 10.4 54.2034 10.48 54.3234 10.64C54.4634 10.8 54.4934 11.13 54.4134 11.63L53.8134 16.1L57.9234 14.18C58.3634 13.96 58.6734 13.89 58.8534 13.97C59.0534 14.05 59.2334 14.34 59.3934 14.84L60.5034 18.17C60.6634 18.67 60.6834 19.01 60.5634 19.19C60.4634 19.35 60.1634 19.47 59.6634 19.55L55.0734 20.3L58.3734 23.75C58.7134 24.13 58.8734 24.42 58.8534 24.62C58.8334 24.82 58.6134 25.07 58.1934 25.37L55.3734 27.41C54.9334 27.69 54.6234 27.81 54.4434 27.77C54.2634 27.71 54.0534 27.47 53.8134 27.05L51.5934 22.82L49.4034 27.05ZM69.7366 27.05C69.4966 27.47 69.2766 27.71 69.0766 27.77C68.8966 27.81 68.5866 27.69 68.1466 27.41L65.3266 25.37C64.9066 25.07 64.6866 24.82 64.6666 24.62C64.6466 24.42 64.8066 24.13 65.1466 23.75L68.4166 20.3L63.8566 19.55C63.3566 19.47 63.0466 19.35 62.9266 19.19C62.8266 19.01 62.8566 18.67 63.0166 18.17L64.0966 14.84C64.2366 14.34 64.4066 14.05 64.6066 13.97C64.8066 13.89 65.1266 13.96 65.5666 14.18L69.8266 16.1L69.1366 11.63C69.0566 11.13 69.0866 10.8 69.2266 10.64C69.3866 10.48 69.7166 10.4 70.2166 10.4H73.7266C74.2266 10.4 74.5366 10.48 74.6566 10.64C74.7966 10.8 74.8266 11.13 74.7466 11.63L74.1466 16.1L78.2566 14.18C78.6966 13.96 79.0066 13.89 79.1866 13.97C79.3866 14.05 79.5666 14.34 79.7266 14.84L80.8366 18.17C80.9966 18.67 81.0166 19.01 80.8966 19.19C80.7966 19.35 80.4966 19.47 79.9966 19.55L75.4066 20.3L78.7066 23.75C79.0466 24.13 79.2066 24.42 79.1866 24.62C79.1666 24.82 78.9466 25.07 78.5266 25.37L75.7066 27.41C75.2666 27.69 74.9566 27.81 74.7766 27.77C74.5966 27.71 74.3866 27.47 74.1466 27.05L71.9266 22.82L69.7366 27.05ZM90.0698 27.05C89.8298 27.47 89.6098 27.71 89.4098 27.77C89.2298 27.81 88.9198 27.69 88.4798 27.41L85.6598 25.37C85.2398 25.07 85.0198 24.82 84.9998 24.62C84.9798 24.42 85.1398 24.13 85.4798 23.75L88.7498 20.3L84.1898 19.55C83.6898 19.47 83.3798 19.35 83.2598 19.19C83.1598 19.01 83.1898 18.67 83.3498 18.17L84.4298 14.84C84.5698 14.34 84.7398 14.05 84.9398 13.97C85.1398 13.89 85.4598 13.96 85.8998 14.18L90.1598 16.1L89.4698 11.63C89.3898 11.13 89.4198 10.8 89.5598 10.64C89.7198 10.48 90.0498 10.4 90.5498 10.4H94.0598C94.5598 10.4 94.8698 10.48 94.9898 10.64C95.1298 10.8 95.1598 11.13 95.0798 11.63L94.4798 16.1L98.5898 14.18C99.0298 13.96 99.3398 13.89 99.5198 13.97C99.7198 14.05 99.8998 14.34 100.06 14.84L101.17 18.17C101.33 18.67 101.35 19.01 101.23 19.19C101.13 19.35 100.83 19.47 100.33 19.55L95.7398 20.3L99.0398 23.75C99.3798 24.13 99.5398 24.42 99.5198 24.62C99.4998 24.82 99.2798 25.07 98.8598 25.37L96.0398 27.41C95.5998 27.69 95.2898 27.81 95.1098 27.77C94.9298 27.71 94.7198 27.47 94.4798 27.05L92.2598 22.82L90.0698 27.05Z" fill="black"/>
</svg>
