<svg width="223" height="55" viewBox="0 0 223 55" fill="none" xmlns="http://www.w3.org/2000/svg">
<path d="M21.7334 1.52875C22.1252 19.2229 23.6363 37.5197 28.4128 54.6063C28.7436 55.7853 30.2379 54.0186 30.0507 53.1972C29.0558 48.8399 26.865 44.6492 24.8234 40.7147C22.1986 35.6616 19.0881 30.8714 15.8433 26.2007C13.4616 22.7749 10.8983 19.476 8.29523 16.215C6.8059 14.3482 5.255 12.5306 3.70534 10.7123C1.45051 8.06442 6.24312 7.80635 7.76168 7.43448C8.61797 7.22678 9.33186 5.02667 8.16153 5.31272C5.39616 5.98619 2.38577 6.85429 0.700556 9.34294C0.50405 9.63273 0.311898 10.2776 0.582403 10.5891C11.208 22.7973 24.6717 38.2267 28.4128 54.6057C28.9594 54.1355 29.5047 53.6648 30.0507 53.1965C25.3141 36.2511 23.826 18.1403 23.4361 0.581674C23.4044 -0.816871 21.7135 0.632042 21.7334 1.52875Z" fill="#CB3644"/>
<path d="M21.1826 9.44729C42.2945 12.1418 64.4461 18.6899 82.1539 30.6611C82.5488 29.9802 82.9406 29.2987 83.3348 28.6171C75.2395 25.9935 66.9615 23.8419 58.6174 22.1803C52.1023 20.8819 37.8743 17.152 33.2708 24.3002C32.4866 25.5178 33.726 26.2062 34.4983 25.0079C38.5061 18.7856 56.2762 23.9775 61.7391 25.1559C68.6162 26.6415 75.4597 28.4909 82.1533 30.6618C83.0512 30.9528 84.178 29.1886 83.3342 28.6177C65.5679 16.6073 43.18 9.9939 21.9935 7.28884C21.0837 7.17131 20.1304 9.31297 21.1826 9.44729Z" fill="#CB3644"/>
<path d="M42.6023 44.4518C44.8764 46.3503 47.9055 47.3086 50.8381 47.2216C53.1203 47.1569 58.2767 45.499 58.3582 42.557C58.462 38.7986 49.8065 39.1207 47.6791 39.5131C42.1434 40.5329 39.9308 46.2272 42.2105 51.1293C44.4641 55.9785 52.2852 54.2789 56.1226 52.7983C56.9285 52.4868 57.6007 50.2624 56.5225 50.679C53.6402 51.7884 50.3562 52.4383 47.2898 51.8997C42.0625 50.9813 41.4177 43.414 46.4702 41.8338C49.383 40.9228 53.5177 41.2462 56.1332 42.9015C56.3222 43.0209 56.469 43.1652 56.6083 43.3387C56.6263 43.3735 56.6462 43.409 56.6661 43.4432C57.2506 42.2772 56.8328 42.4153 55.4087 43.8548C53.6053 45.0202 51.4357 45.2142 49.3649 44.9543C47.3955 44.7055 45.3098 43.6807 43.7832 42.4066C43.0793 41.822 41.8349 43.8082 42.6023 44.4518Z" fill="#CB3644"/>
<path d="M72.3758 51.3573C74.8962 48.225 76.1156 41.0302 70.4406 40.7106C66.2512 40.4749 61.7701 44.7178 60.435 48.3979C58.483 53.7813 65.7002 54.9659 69.3319 53.581C73.3372 52.0531 76.5777 47.9757 78.5371 44.2837C78.0838 44.1426 77.6292 44.0008 77.1759 43.8602C76.023 47.6591 76.2947 52.3193 80.4922 53.9262C81.4244 54.2825 82.5325 52.2111 81.6719 51.8828C78.2834 50.5843 77.7691 46.9788 78.6721 44.0008C79.0526 42.7465 77.8661 42.5326 77.3121 43.5761C74.6667 48.5633 69.0651 54.4 63.04 51.103C59.2137 49.0042 64.9571 44.5897 66.8413 43.609C71.4287 41.2248 74.8869 45.9298 71.5065 50.1304C70.7509 51.0706 71.3883 52.5855 72.3758 51.3573Z" fill="#CB3644"/>
<path d="M90.0589 15.8902C87.2792 26.7676 83.5581 42.5216 89.2412 52.9569C90.5147 55.2926 94.3466 53.7473 96.1898 52.97C103.237 50.0012 106.72 41.35 108.917 34.695C109.408 33.205 107.803 33.3972 107.42 34.5557C105.196 41.291 101.839 49.5715 94.2943 51.6635C90.0869 52.8332 89.6703 49.6169 88.8936 45.9101C86.8701 36.2409 89.2984 24.9207 91.7149 15.4704C92.0955 13.9749 90.3039 14.9356 90.0589 15.8902Z" fill="#CB3644"/>
<path d="M101.621 41.8309C104.834 45.82 108.046 49.8074 111.26 53.7953C111.929 54.6261 113.296 52.7245 112.723 52.0137C109.511 48.0257 106.297 44.0372 103.084 40.0493C102.414 39.2153 101.046 41.1176 101.621 41.8309Z" fill="#CB3644"/>
<path d="M148.519 23.391C151.779 22.1597 156.831 17.8037 150.367 16.5121C144.001 15.2423 128.148 15.606 126.555 24.4376C124.573 35.4214 142.166 36.7397 149.126 38.331C153.736 39.3857 159.59 41.5559 164.431 41.1928C165.34 41.1237 166.232 38.9696 165.244 39.0337C149.444 40.0305 133.499 45.9829 119.007 51.8476C118.207 52.1697 117.542 54.3996 118.605 53.9681C132.941 48.1712 148.796 42.1778 164.43 41.1921C164.703 40.4714 164.97 39.7532 165.243 39.0331C159.275 39.4802 151.994 36.6551 146.32 35.3368C141.585 34.2373 136.582 33.4066 132.233 31.1803C125.106 27.5363 129.19 21.4222 135.032 19.4217C138.556 18.2166 142.407 17.9237 146.099 18.0959C149.921 18.2732 153.617 19.492 148.918 21.2686C148.109 21.5746 147.436 23.8008 148.519 23.391Z" fill="#CB3644"/>
<path d="M171.822 12.234C169.034 25.6728 170.429 40.2366 172.662 53.607C172.812 54.5137 173.896 53.607 174.093 53.2576C176.117 49.6962 179.058 45.1921 178.982 40.9654L177.401 42.3273C179.174 45.0435 180.947 47.7573 182.719 50.471C183.286 51.3391 184.689 49.4612 184.183 48.6876C182.41 45.9751 180.638 43.2607 178.865 40.545C178.284 39.6533 177.275 41.3995 177.283 41.9113C177.346 45.5342 174.601 49.4972 172.866 52.5505C173.345 52.4324 173.821 52.3167 174.299 52.1998C172.131 39.2 170.763 24.8862 173.478 11.8136C173.791 10.2976 172.025 11.2558 171.822 12.234Z" fill="#CB3644"/>
<path d="M192.079 52.2029C190.841 47.5091 189.378 42.359 189.62 37.4774C189.686 36.0982 187.96 37.544 187.917 38.4226C187.67 43.4572 189.165 48.7777 190.442 53.6108C190.745 54.7674 192.303 53.0523 192.079 52.2029Z" fill="#CB3644"/>
<path d="M182.027 17.1999C183.222 17.6483 184.754 18.7739 184.617 20.2097C184.47 21.7507 186.174 20.8098 186.27 19.79C186.472 17.6614 185.189 15.8978 183.208 15.1553C182.274 14.8033 181.169 16.8772 182.027 17.1999Z" fill="#CB3644"/>
<path d="M200.72 52.2008C198.246 46.4623 197.75 39.8235 197.721 33.6702C197.707 30.3583 198.1 27.06 198.58 23.789C198.828 22.2673 199.124 20.7556 199.468 19.2545C200.107 16.2404 202.724 14.9612 203.626 18.5201C204.068 20.2718 205.288 31.9682 203.875 32.8202C203.114 33.2778 202.717 35.4848 203.907 34.7672C205.851 33.5956 205.851 30.2544 205.98 28.3453C206.069 27.05 204.831 8.02382 201.006 11.6822C198.363 14.2119 198.046 18.5791 197.325 21.9751C196.202 27.2732 195.908 32.7524 196.085 38.1519C196.254 43.2698 197.037 48.8677 199.082 53.6087C199.57 54.7404 201.071 53.0111 200.72 52.2008Z" fill="#CB3644"/>
<path d="M189.864 35.68C193.132 38.8514 197.84 42.9432 202.653 42.8481C203.578 42.8313 204.47 40.6703 203.467 40.6884C198.957 40.7761 194.403 36.8808 191.329 33.8965C190.542 33.1341 189.224 35.0606 189.864 35.68Z" fill="#CB3644"/>
<path d="M207.527 12.8292C208.736 26.283 209.938 39.8593 209.853 53.3764C209.844 54.7706 211.548 53.3223 211.555 52.4331C211.641 38.9147 210.438 25.3396 209.228 11.8834C209.102 10.4799 207.445 11.9251 207.527 12.8292Z" fill="#CB3644"/>
<path d="M202.666 37.7039C205.49 39.1143 208.394 40.3773 211.334 41.5196C214.174 42.6209 218.537 44.6457 221.596 43.4349C222.399 43.1172 223.066 40.8897 221.997 41.3119C218.802 42.5755 213.942 40.0533 211.039 38.8923C208.602 37.9191 206.197 36.8321 203.845 35.6581C202.965 35.2178 201.811 37.2761 202.666 37.7039Z" fill="#CB3644"/>
</svg>
