<svg width="195" height="42" viewBox="0 0 195 42" fill="none" xmlns="http://www.w3.org/2000/svg">
<path d="M0.87793 28.6807V21.7143L6.50818 19.2941V8.44538L12.1048 6V23.8151L0.87793 28.6807ZM26.1216 28.7395V21.7815L20.4914 19.3529V8.5042L14.8947 6.07563V23.874L26.1216 28.7395ZM13.5166 26.2521L2.32331 31.1429L13.5082 36L24.7351 31.1176L13.5166 26.2521Z" fill="#191919"/>
<path d="M41.4016 24.89H36.8416C36.8216 26.21 37.0616 27.35 37.5616 28.31C38.0616 29.27 38.7316 30.06 39.5716 30.68C40.4316 31.3 41.4116 31.75 42.5116 32.03C43.6316 32.33 44.7816 32.48 45.9616 32.48C47.4216 32.48 48.7016 32.31 49.8016 31.97C50.9216 31.63 51.8516 31.16 52.5916 30.56C53.3516 29.94 53.9216 29.21 54.3016 28.37C54.6816 27.53 54.8716 26.62 54.8716 25.64C54.8716 24.44 54.6116 23.46 54.0916 22.7C53.5916 21.92 52.9916 21.3 52.2916 20.84C51.5916 20.38 50.8816 20.05 50.1616 19.85C49.4616 19.63 48.9116 19.48 48.5116 19.4C47.1716 19.06 46.0816 18.78 45.2416 18.56C44.4216 18.34 43.7716 18.12 43.2916 17.9C42.8316 17.68 42.5216 17.44 42.3616 17.18C42.2016 16.92 42.1216 16.58 42.1216 16.16C42.1216 15.7 42.2216 15.32 42.4216 15.02C42.6216 14.72 42.8716 14.47 43.1716 14.27C43.4916 14.07 43.8416 13.93 44.2216 13.85C44.6016 13.77 44.9816 13.73 45.3616 13.73C45.9416 13.73 46.4716 13.78 46.9516 13.88C47.4516 13.98 47.8916 14.15 48.2716 14.39C48.6516 14.63 48.9516 14.96 49.1716 15.38C49.4116 15.8 49.5516 16.33 49.5916 16.97H54.1516C54.1516 15.73 53.9116 14.68 53.4316 13.82C52.9716 12.94 52.3416 12.22 51.5416 11.66C50.7416 11.1 49.8216 10.7 48.7816 10.46C47.7616 10.2 46.6916 10.07 45.5716 10.07C44.6116 10.07 43.6516 10.2 42.6916 10.46C41.7316 10.72 40.8716 11.12 40.1116 11.66C39.3516 12.2 38.7316 12.88 38.2516 13.7C37.7916 14.5 37.5616 15.45 37.5616 16.55C37.5616 17.53 37.7416 18.37 38.1016 19.07C38.4816 19.75 38.9716 20.32 39.5716 20.78C40.1716 21.24 40.8516 21.62 41.6116 21.92C42.3716 22.2 43.1516 22.44 43.9516 22.64C44.7316 22.86 45.5016 23.06 46.2616 23.24C47.0216 23.42 47.7016 23.63 48.3016 23.87C48.9016 24.11 49.3816 24.41 49.7416 24.77C50.1216 25.13 50.3116 25.6 50.3116 26.18C50.3116 26.72 50.1716 27.17 49.8916 27.53C49.6116 27.87 49.2616 28.14 48.8416 28.34C48.4216 28.54 47.9716 28.68 47.4916 28.76C47.0116 28.82 46.5616 28.85 46.1416 28.85C45.5216 28.85 44.9216 28.78 44.3416 28.64C43.7616 28.48 43.2516 28.25 42.8116 27.95C42.3916 27.63 42.0516 27.22 41.7916 26.72C41.5316 26.22 41.4016 25.61 41.4016 24.89ZM56.024 10.58V32H60.284V23.87C60.284 22.29 60.544 21.16 61.064 20.48C61.584 19.78 62.424 19.43 63.584 19.43C64.604 19.43 65.314 19.75 65.714 20.39C66.114 21.01 66.314 21.96 66.314 23.24V32H70.574V22.46C70.574 21.5 70.484 20.63 70.304 19.85C70.144 19.05 69.854 18.38 69.434 17.84C69.014 17.28 68.434 16.85 67.694 16.55C66.974 16.23 66.044 16.07 64.904 16.07C64.104 16.07 63.284 16.28 62.444 16.7C61.604 17.1 60.914 17.75 60.374 18.65H60.284V10.58H56.024ZM76.9872 14.09V10.58H72.7272V14.09H76.9872ZM72.7272 16.49V32H76.9872V16.49H72.7272ZM80.0716 19.34V32H84.3316V19.34H87.2716V16.49H84.3316V15.56C84.3316 14.92 84.4516 14.47 84.6916 14.21C84.9516 13.93 85.3716 13.79 85.9516 13.79C86.4916 13.79 87.0116 13.82 87.5116 13.88V10.7C87.1516 10.68 86.7816 10.66 86.4016 10.64C86.0216 10.6 85.6416 10.58 85.2616 10.58C83.5216 10.58 82.2216 11.02 81.3616 11.9C80.5016 12.78 80.0716 13.91 80.0716 15.29V16.49H77.5216V19.34H80.0716ZM93.3318 16.49V11.84H89.0718V16.49H86.4918V19.34H89.0718V28.49C89.0718 29.27 89.2018 29.9 89.4618 30.38C89.7218 30.86 90.0718 31.23 90.5118 31.49C90.9718 31.75 91.4918 31.92 92.0718 32C92.6718 32.1 93.3018 32.15 93.9618 32.15C94.3818 32.15 94.8118 32.14 95.2518 32.12C95.6918 32.1 96.0918 32.06 96.4518 32V28.7C96.2518 28.74 96.0418 28.77 95.8218 28.79C95.6018 28.81 95.3718 28.82 95.1318 28.82C94.4118 28.82 93.9318 28.7 93.6918 28.46C93.4518 28.22 93.3318 27.74 93.3318 27.02V19.34H96.4518V16.49H93.3318ZM119.158 17.78H123.718C123.578 16.54 123.238 15.44 122.698 14.48C122.158 13.52 121.468 12.72 120.628 12.08C119.808 11.42 118.868 10.92 117.808 10.58C116.768 10.24 115.658 10.07 114.478 10.07C112.838 10.07 111.358 10.36 110.038 10.94C108.738 11.52 107.638 12.32 106.738 13.34C105.838 14.36 105.148 15.56 104.668 16.94C104.188 18.3 103.948 19.78 103.948 21.38C103.948 22.94 104.188 24.4 104.668 25.76C105.148 27.1 105.838 28.27 106.738 29.27C107.638 30.27 108.738 31.06 110.038 31.64C111.358 32.2 112.838 32.48 114.478 32.48C115.798 32.48 117.008 32.28 118.108 31.88C119.208 31.48 120.168 30.9 120.988 30.14C121.808 29.38 122.468 28.46 122.968 27.38C123.468 26.3 123.778 25.09 123.898 23.75H119.338C119.158 25.19 118.658 26.35 117.838 27.23C117.038 28.11 115.918 28.55 114.478 28.55C113.418 28.55 112.518 28.35 111.778 27.95C111.038 27.53 110.438 26.98 109.978 26.3C109.518 25.62 109.178 24.86 108.958 24.02C108.758 23.16 108.658 22.28 108.658 21.38C108.658 20.44 108.758 19.53 108.958 18.65C109.178 17.77 109.518 16.99 109.978 16.31C110.438 15.61 111.038 15.06 111.778 14.66C112.518 14.24 113.418 14.03 114.478 14.03C115.058 14.03 115.608 14.13 116.128 14.33C116.668 14.51 117.148 14.77 117.568 15.11C117.988 15.45 118.338 15.85 118.618 16.31C118.898 16.75 119.078 17.24 119.158 17.78ZM125.465 16.49V32H129.725V25.01C129.725 24.31 129.795 23.66 129.935 23.06C130.075 22.46 130.305 21.94 130.625 21.5C130.965 21.04 131.405 20.68 131.945 20.42C132.485 20.16 133.145 20.03 133.925 20.03C134.185 20.03 134.455 20.05 134.735 20.09C135.015 20.11 135.255 20.14 135.455 20.18V16.22C135.115 16.12 134.805 16.07 134.525 16.07C133.985 16.07 133.465 16.15 132.965 16.31C132.465 16.47 131.995 16.7 131.555 17C131.115 17.28 130.725 17.63 130.385 18.05C130.045 18.45 129.775 18.89 129.575 19.37H129.515V16.49H125.465ZM143.575 33.92L150.055 16.49H145.645L142.255 27.11H142.195L138.685 16.49H134.155L139.585 31.04C139.705 31.34 139.765 31.66 139.765 32C139.765 32.46 139.625 32.88 139.345 33.26C139.085 33.64 138.675 33.86 138.115 33.92C137.695 33.94 137.275 33.93 136.855 33.89C136.435 33.85 136.025 33.81 135.625 33.77V37.28C136.065 37.32 136.495 37.35 136.915 37.37C137.355 37.41 137.795 37.43 138.235 37.43C139.695 37.43 140.835 37.16 141.655 36.62C142.475 36.08 143.115 35.18 143.575 33.92ZM158.111 29.21C157.431 29.21 156.851 29.07 156.371 28.79C155.891 28.51 155.501 28.15 155.201 27.71C154.921 27.25 154.711 26.72 154.571 26.12C154.451 25.52 154.391 24.91 154.391 24.29C154.391 23.65 154.451 23.03 154.571 22.43C154.691 21.83 154.891 21.3 155.171 20.84C155.471 20.38 155.851 20.01 156.311 19.73C156.791 19.43 157.381 19.28 158.081 19.28C158.761 19.28 159.331 19.43 159.791 19.73C160.271 20.01 160.661 20.39 160.961 20.87C161.261 21.33 161.471 21.86 161.591 22.46C161.731 23.06 161.801 23.67 161.801 24.29C161.801 24.91 161.741 25.52 161.621 26.12C161.501 26.72 161.291 27.25 160.991 27.71C160.711 28.15 160.331 28.51 159.851 28.79C159.391 29.07 158.811 29.21 158.111 29.21ZM150.281 16.49V37.43H154.541V30.08H154.601C155.121 30.84 155.781 31.42 156.581 31.82C157.401 32.2 158.291 32.39 159.251 32.39C160.391 32.39 161.381 32.17 162.221 31.73C163.081 31.29 163.791 30.7 164.351 29.96C164.931 29.22 165.361 28.37 165.641 27.41C165.921 26.45 166.061 25.45 166.061 24.41C166.061 23.31 165.921 22.26 165.641 21.26C165.361 20.24 164.931 19.35 164.351 18.59C163.771 17.83 163.041 17.22 162.161 16.76C161.281 16.3 160.231 16.07 159.011 16.07C158.051 16.07 157.171 16.26 156.371 16.64C155.571 17.02 154.911 17.63 154.391 18.47H154.331V16.49H150.281ZM172.821 16.49V11.84H168.561V16.49H165.981V19.34H168.561V28.49C168.561 29.27 168.691 29.9 168.951 30.38C169.211 30.86 169.561 31.23 170.001 31.49C170.461 31.75 170.981 31.92 171.561 32C172.161 32.1 172.791 32.15 173.451 32.15C173.871 32.15 174.301 32.14 174.741 32.12C175.181 32.1 175.581 32.06 175.941 32V28.7C175.741 28.74 175.531 28.77 175.311 28.79C175.091 28.81 174.861 28.82 174.621 28.82C173.901 28.82 173.421 28.7 173.181 28.46C172.941 28.22 172.821 27.74 172.821 27.02V19.34H175.941V16.49H172.821ZM180.548 24.26C180.548 23.64 180.608 23.03 180.728 22.43C180.848 21.83 181.048 21.3 181.328 20.84C181.628 20.38 182.018 20.01 182.498 19.73C182.978 19.43 183.578 19.28 184.298 19.28C185.018 19.28 185.618 19.43 186.098 19.73C186.598 20.01 186.988 20.38 187.268 20.84C187.568 21.3 187.778 21.83 187.898 22.43C188.018 23.03 188.078 23.64 188.078 24.26C188.078 24.88 188.018 25.49 187.898 26.09C187.778 26.67 187.568 27.2 187.268 27.68C186.988 28.14 186.598 28.51 186.098 28.79C185.618 29.07 185.018 29.21 184.298 29.21C183.578 29.21 182.978 29.07 182.498 28.79C182.018 28.51 181.628 28.14 181.328 27.68C181.048 27.2 180.848 26.67 180.728 26.09C180.608 25.49 180.548 24.88 180.548 24.26ZM176.288 24.26C176.288 25.5 176.478 26.62 176.858 27.62C177.238 28.62 177.778 29.48 178.478 30.2C179.178 30.9 180.018 31.44 180.998 31.82C181.978 32.2 183.078 32.39 184.298 32.39C185.518 32.39 186.618 32.2 187.598 31.82C188.598 31.44 189.448 30.9 190.148 30.2C190.848 29.48 191.388 28.62 191.768 27.62C192.148 26.62 192.338 25.5 192.338 24.26C192.338 23.02 192.148 21.9 191.768 20.9C191.388 19.88 190.848 19.02 190.148 18.32C189.448 17.6 188.598 17.05 187.598 16.67C186.618 16.27 185.518 16.07 184.298 16.07C183.078 16.07 181.978 16.27 180.998 16.67C180.018 17.05 179.178 17.6 178.478 18.32C177.778 19.02 177.238 19.88 176.858 20.9C176.478 21.9 176.288 23.02 176.288 24.26Z" fill="black"/>
</svg>
