<svg width="123" height="30" viewBox="0 0 123 30" fill="none" xmlns="http://www.w3.org/2000/svg">
<g clip-path="url(#clip0_215_15659)">
<path d="M45.8288 21.9851C48.2759 21.9851 49.5714 20.891 49.5714 19.0196C49.5714 17.1483 48.2471 16.0255 45.8288 16.0255H41.0304V21.9851H45.8288ZM41.0304 12.8874H45.7424C47.8153 12.8874 48.9669 11.9277 48.9669 10.2386C48.9669 8.54947 47.9017 7.76274 45.7712 7.76274H41.0209L41.0304 12.8874ZM53.6022 19.3363C53.6022 22.9063 51.155 25.0943 47.2684 25.0943H36.9902V4.65332H46.7212C50.32 4.65332 52.8823 6.57268 52.8823 9.92199C52.9664 11.9506 51.6617 13.7773 49.7154 14.3556C52.2202 15.1329 53.5541 16.774 53.5541 19.3363" fill="#191919"/>
<path d="M59.9551 4.65332H56.2124V8.39599H59.9551V4.65332Z" fill="#191919"/>
<path d="M59.9551 10.3828H56.2124V25.0946H59.9551V10.3828Z" fill="#191919"/>
<path d="M71.7684 24.8931C70.703 25.2587 69.584 25.4435 68.4575 25.4401C65.5786 25.4401 64.283 24.0869 64.283 21.2944V13.233H61.6631V10.4116H64.2829V5.83398H68.0257V10.4116H71.5381V13.2906H68.0257V20.8912C68.0257 21.8988 68.4574 22.2444 69.4939 22.2444C70.1183 22.2109 70.7367 22.1046 71.3364 21.9276L71.7684 24.8931Z" fill="#191919"/>
<path d="M82.9201 21.9851C85.3672 21.9851 86.6627 20.891 86.6627 19.0196C86.6627 17.1483 85.3384 16.0255 82.9201 16.0255H78.1217V21.9851H82.9201ZM78.1217 12.8874H82.8432C84.9162 12.8874 86.0678 11.9277 86.0678 10.2386C86.0678 8.54947 84.9737 7.76274 82.8626 7.76274H78.1122L78.1217 12.8874ZM90.7318 19.3363C90.7318 22.9063 88.2847 25.0943 84.398 25.0943H74.0815V4.65332H83.8125C87.4113 4.65332 89.9735 6.57268 89.9735 9.92199C90.0577 11.9506 88.753 13.7773 86.8067 14.3556C89.3115 15.1329 90.6933 16.774 90.6933 19.3363" fill="#191919"/>
<path d="M96.2595 17.7245C96.2595 20.6035 97.7854 22.3885 100.098 22.3885C102.411 22.3885 103.937 20.5747 103.937 17.7245C103.937 14.8742 102.411 13.0604 100.098 13.0604C97.7854 13.0604 96.2595 14.9798 96.2595 17.7245ZM107.776 17.7245C107.776 22.3885 104.58 25.5553 100.098 25.5553C95.6165 25.5553 92.4209 22.3885 92.4209 17.7245C92.4209 13.0604 95.6165 9.89355 100.098 9.89355C104.58 9.89355 107.776 13.0604 107.776 17.7245Z" fill="#191919"/>
<path d="M118.457 25.0946L115.146 20.0564L111.806 25.0946H107.775L113.073 17.3788L108.265 10.3828H112.324L115.203 14.7013L118.025 10.3828H122.046L117.305 17.2349L122.564 25.0946H118.457Z" fill="#191919"/>
<path d="M0.435547 22.6853V15.7115L6.06861 13.289V2.4344L11.6547 0V17.8048L0.435547 22.6853Z" fill="#191919"/>
<path d="M25.6845 22.7438V15.7818L20.0514 13.3475V2.50468L14.4536 0.0585938V17.8633L25.6845 22.7438Z" fill="#191919"/>
<path d="M13.0775 20.251L1.88184 25.1433L13.0657 30L24.2967 25.1197L13.0775 20.251Z" fill="#191919"/>
</g>
<defs>
<clipPath id="clip0_215_15659">
<rect width="122.129" height="30" fill="white" transform="translate(0.435547)"/>
</clipPath>
</defs>
</svg>
