<svg width="215" height="44" viewBox="0 0 215 44" fill="none" xmlns="http://www.w3.org/2000/svg">
<path d="M214.127 0.0576172C214.127 14.6897 214.127 29.3104 214.127 43.9425C143.061 43.9425 72.0073 43.9425 0.941895 43.9425C0.941895 29.2988 0.941895 14.6782 0.941895 0.0576172C72.0188 0.0576172 143.073 0.0576172 214.127 0.0576172ZM3.84299 41.3637C72.9859 41.3637 142.094 41.3637 211.203 41.3637C211.203 28.5621 211.203 15.7719 211.203 2.99325C142.071 2.99325 72.9628 2.99325 3.84299 2.99325C3.84299 15.7834 3.84299 28.5621 3.84299 41.3637Z" fill="black"/>
<path d="M214.127 0.0575615C143.073 0.0575615 72.0191 0.0575615 0.94212 0.0575615C0.94212 14.6897 0.94212 29.2988 0.94212 43.9424C72.0075 43.9424 143.061 43.9424 214.127 43.9424C214.115 43.9655 214.104 44 214.092 44C214.012 44 213.931 44 213.862 44C142.866 44 71.8694 44 0.873047 44C0.873047 29.3333 0.873047 14.6782 0.873047 0C1.01119 0 1.14934 0 1.28749 0C72.1457 0 143.004 0 213.862 0C213.954 0 214.035 0.0345369 214.127 0.0575615Z" fill="white"/>
<path d="M134.427 16.9691C134.427 22.4259 134.427 27.8712 134.427 33.3396C133.449 33.3396 132.482 33.3396 131.515 33.3396C131.515 25.9487 131.515 18.5808 131.515 11.1899C131.607 11.1784 131.687 11.1669 131.768 11.1669C132.643 11.1669 133.518 11.1784 134.393 11.1554C134.6 11.1554 134.692 11.2245 134.784 11.4086C136.695 15.6912 138.618 19.9738 140.54 24.2564C141.277 25.9141 142.025 27.5604 142.762 29.2182C142.785 29.2757 142.82 29.3333 142.866 29.4369C142.935 29.2988 142.992 29.1951 143.05 29.08C145.686 23.1857 148.334 17.2914 150.97 11.3971C151.051 11.2245 151.132 11.1439 151.327 11.1554C152.202 11.1669 153.077 11.1554 153.952 11.1669C154.033 11.1669 154.102 11.1784 154.194 11.1784C154.194 18.5693 154.194 25.9372 154.194 33.3281C153.238 33.3281 152.283 33.3281 151.293 33.3281C151.293 27.8827 151.293 22.4489 151.293 17.0151C151.27 17.0151 151.247 17.0036 151.224 17.0036C151.155 17.1418 151.086 17.2914 151.016 17.4296C148.691 22.6446 146.366 27.8597 144.04 33.0748C143.948 33.282 143.844 33.3741 143.614 33.3626C143.119 33.3396 142.624 33.3511 142.129 33.3626C141.933 33.3626 141.818 33.3165 141.738 33.1208C139.378 27.8367 137.018 22.5526 134.658 17.2684C134.611 17.1648 134.554 17.0612 134.508 16.9576C134.473 16.9576 134.45 16.9691 134.427 16.9691Z" fill="black"/>
<path d="M72.8708 20.0315C72.56 19.5825 72.2261 19.168 71.9383 18.7191C71.1555 17.5333 70.8447 16.2209 71.0519 14.8049C71.2591 13.3543 71.9844 12.2146 73.2507 11.5124C75.392 10.3151 77.6369 10.2 79.8703 11.2361C81.7929 12.134 82.4721 14.022 82.426 15.6913C82.426 15.7144 82.4145 15.7489 82.3915 15.7834C81.436 15.7834 80.4805 15.7834 79.5134 15.7834C79.4904 15.5417 79.4789 15.3114 79.4328 15.0812C79.2026 13.8724 78.2471 13.055 77.0153 12.9974C76.0713 12.9514 75.1963 13.1356 74.5516 13.8724C73.6882 14.8509 73.7803 15.9561 74.2868 17.0613C74.7243 18.0053 75.4266 18.7766 76.1518 19.5019C78.201 21.5856 80.2732 23.6463 82.3455 25.7185C82.5181 25.9027 82.7023 26.0754 82.9096 26.2711C83.1283 25.9258 83.347 25.5919 83.5542 25.2465C84.2104 24.1529 84.8667 23.0477 85.5344 21.954C85.5919 21.8619 85.7301 21.7468 85.8337 21.7468C86.8007 21.7353 87.7793 21.7353 88.8384 21.7353C87.5375 23.9572 86.2596 26.133 84.9818 28.3203C86.605 29.9436 88.2628 31.6013 89.9205 33.2591C89.909 33.2821 89.886 33.3167 89.8745 33.3397C89.7939 33.3512 89.7133 33.3627 89.6327 33.3627C88.5391 33.3627 87.4569 33.3742 86.3633 33.3512C86.2136 33.3512 86.0409 33.2706 85.9373 33.1785C85.0854 32.3381 84.245 31.4862 83.4046 30.6343C83.3355 30.5652 83.2664 30.5077 83.2319 30.4731C82.5527 31.0257 81.908 31.5898 81.2173 32.0848C79.2371 33.4663 76.9922 33.8808 74.6207 33.7196C73.0896 33.616 71.6505 33.2131 70.3842 32.3381C68.6228 31.1178 67.7479 29.4025 67.6788 27.2727C67.5752 23.9341 69.279 21.7583 72.1686 20.3538C72.3873 20.2387 72.6291 20.1351 72.8708 20.0315ZM81.2173 28.5045C81.1942 28.47 81.1942 28.447 81.1827 28.4354C79.0529 26.2942 76.9232 24.1529 74.7934 22.0231C74.7358 21.9655 74.5977 21.9425 74.5171 21.977C73.5155 22.3569 72.6061 22.8865 71.8578 23.6578C69.7855 25.7646 70.0849 29.9551 73.8264 31.0142C75.6338 31.5207 77.3837 31.256 79.0299 30.3465C79.8818 29.863 80.5956 29.2298 81.2173 28.5045Z" fill="black"/>
<path d="M198.988 11.0054C199.99 11.0054 200.945 11.0054 201.912 11.0054C201.912 18.4539 201.912 25.8909 201.912 33.3739C201.717 33.3739 201.533 33.3739 201.337 33.3739C200.646 33.3739 199.955 33.3623 199.265 33.3739C199.069 33.3739 198.954 33.3163 198.839 33.1551C196.824 30.0928 194.809 27.0421 192.795 23.9913C190.999 21.2744 189.214 18.569 187.419 15.8521C187.384 15.8061 187.349 15.7715 187.269 15.6564C187.269 21.5968 187.269 27.468 187.269 33.3508C186.279 33.3508 185.323 33.3508 184.345 33.3508C184.345 25.9024 184.345 18.4769 184.345 11.0054C184.425 10.9939 184.506 10.9824 184.598 10.9824C185.404 10.9824 186.21 10.9824 187.016 10.9824C187.188 10.9824 187.292 11.04 187.395 11.1896C191.172 16.9113 194.948 22.6214 198.735 28.343C198.793 28.4351 198.862 28.5272 198.977 28.6998C198.988 22.748 198.988 16.8767 198.988 11.0054Z" fill="black"/>
<path d="M180.545 22.1954C180.488 25.2116 179.601 27.8939 177.529 30.1273C175.791 32.0038 173.615 33.0975 171.082 33.4544C168.734 33.7882 166.443 33.5465 164.29 32.4989C161.032 30.9102 159.029 28.2854 158.304 24.7626C157.717 21.9076 157.993 19.1101 159.42 16.5083C161.182 13.3079 163.899 11.4198 167.513 10.9018C170.875 10.4183 173.96 11.1436 176.597 13.3424C178.692 15.0923 179.912 17.3717 180.338 20.0541C180.453 20.7563 180.476 21.4816 180.545 22.1954ZM177.518 22.1723C177.483 21.7003 177.472 21.2168 177.414 20.7448C177.207 18.9028 176.551 17.2451 175.296 15.8636C173.569 13.9756 171.382 13.2158 168.86 13.3079C165.487 13.446 162.759 15.3916 161.642 18.546C160.813 20.8599 160.802 23.22 161.562 25.5454C162.229 27.5716 163.496 29.1373 165.407 30.1388C166.857 30.8871 168.4 31.1404 170.012 31.0023C172.326 30.8066 174.248 29.851 175.676 27.9976C177.011 26.2937 177.506 24.3021 177.518 22.1723Z" fill="black"/>
<path d="M13.1224 27.4109C14.1469 27.4109 15.16 27.4109 16.2076 27.4109C16.2422 27.5605 16.2652 27.7217 16.2997 27.8714C16.7027 29.6788 18.0726 30.8761 19.9607 31.0603C21.1119 31.1754 22.2286 31.1178 23.2992 30.6113C24.957 29.8169 25.7398 27.9865 25.1527 26.2596C24.8073 25.2235 24.013 24.5788 23.046 24.2105C21.8372 23.75 20.5708 23.4276 19.3275 23.0362C18.5101 22.7829 17.6927 22.5412 16.8984 22.2418C14.4232 21.2978 13.1224 19.4328 13.2375 16.7044C13.3411 14.4595 14.3657 12.7442 16.3688 11.7426C19.1318 10.3612 21.9753 10.3266 24.7613 11.6736C26.6838 12.5945 27.7775 14.2063 28.0538 16.3476C28.0538 16.3821 28.0538 16.4281 28.0538 16.4857C26.9947 16.4857 25.9471 16.4857 24.8649 16.4857C24.8419 16.3706 24.8073 16.2439 24.7728 16.1173C24.4735 15.0467 23.7827 14.2753 22.8157 13.8148C21.25 13.0665 19.6383 13.032 18.0611 13.7918C16.1156 14.7243 15.9544 16.8771 16.4839 18.1435C16.8523 19.0069 17.5431 19.571 18.395 19.8933C19.5808 20.3423 20.8126 20.6762 22.0098 21.0791C23.115 21.4475 24.2432 21.7698 25.2909 22.2764C27.2595 23.2319 28.261 24.8666 28.3071 27.077C28.3646 29.6212 26.9716 31.9582 24.2663 32.9943C21.4918 34.0535 18.7173 33.8923 16.1155 32.4187C14.2506 31.3596 13.2029 29.7248 13.1339 27.5375C13.0993 27.4684 13.1108 27.4454 13.1224 27.4109Z" fill="black"/>
<path d="M47.8085 24.671C47.2214 25.6725 46.6573 26.6511 46.0816 27.6181C44.9995 29.4601 43.9173 31.302 42.8467 33.144C42.7546 33.3052 42.651 33.3743 42.4553 33.3743C41.5458 33.3627 40.6478 33.3743 39.7384 33.3743C39.6578 33.3743 39.5887 33.3627 39.4506 33.3627C39.5426 33.2016 39.6232 33.0749 39.7038 32.9483C41.8336 29.4716 43.9634 25.9949 46.0931 22.5297C46.2313 22.2994 46.2313 22.1383 46.0931 21.908C43.9288 18.3968 41.776 14.8855 39.6117 11.3627C39.5542 11.2706 39.4966 11.167 39.416 11.0174C39.5311 11.0174 39.6117 11.0174 39.7038 11.0174C40.5903 11.0174 41.4767 11.0289 42.3632 11.0059C42.6164 11.0059 42.7546 11.0749 42.8927 11.2937C44.562 14.0221 46.2313 16.739 47.9121 19.4559C47.9581 19.5365 48.0157 19.6171 48.0963 19.7322C48.1654 19.6286 48.2229 19.548 48.269 19.4559C49.8807 16.716 51.4809 13.9875 53.0811 11.2476C53.1847 11.0749 53.2768 11.0059 53.484 11.0059C54.4741 11.0174 55.4642 11.0059 56.5118 11.0059C56.4427 11.1325 56.3851 11.2246 56.3391 11.3052C54.1633 14.8395 51.9759 18.3737 49.7886 21.908C49.662 22.1152 49.6505 22.2649 49.7886 22.4721C51.9644 25.9949 54.1402 29.5291 56.3046 33.0519C56.3506 33.1325 56.3967 33.2131 56.4772 33.3512C56.3276 33.3512 56.224 33.3512 56.1204 33.3512C55.2454 33.3512 54.3705 33.3397 53.4956 33.3627C53.2538 33.3627 53.1157 33.2937 52.989 33.0865C51.3312 30.3696 49.662 27.6642 47.9927 24.9473C47.9351 24.8782 47.8891 24.7976 47.8085 24.671Z" fill="black"/>
<path d="M115.063 11.0059C119.07 11.0059 123.065 11.0059 127.082 11.0059C127.082 11.8002 127.082 12.583 127.082 13.4004C124.066 13.4004 121.061 13.4004 118.022 13.4004C118.022 15.8871 118.022 18.3507 118.022 20.8374C120.716 20.8374 123.41 20.8374 126.115 20.8374C126.115 21.6547 126.115 22.4376 126.115 23.2665C123.421 23.2665 120.739 23.2665 118.022 23.2665C118.022 25.8337 118.022 28.3779 118.022 30.9452C121.027 30.9452 124.043 30.9452 127.071 30.9452C127.071 31.7625 127.071 32.5454 127.071 33.3512C123.065 33.3512 119.07 33.3512 115.063 33.3512C115.063 25.8913 115.063 18.4543 115.063 11.0059Z" fill="black"/>
<path d="M111.955 30.9678C111.955 31.7967 111.955 32.5565 111.955 33.3509C108.386 33.3509 104.818 33.3509 101.237 33.3509C101.237 25.9139 101.237 18.4885 101.237 11.04C102.204 11.04 103.16 11.04 104.138 11.04C104.138 17.6826 104.138 24.3137 104.138 30.9793C106.752 30.9678 109.342 30.9678 111.955 30.9678Z" fill="black"/>
<path d="M35.4792 33.3509C34.5007 33.3509 33.5452 33.3509 32.5781 33.3509C32.5781 25.9139 32.5781 18.4885 32.5781 11.04C33.5336 11.04 34.4892 11.04 35.4792 11.04C35.4792 18.4655 35.4792 25.8909 35.4792 33.3509Z" fill="black"/>
</svg>
